<svg id="Layer_1" data-name="Layer 1" xmlns="http://www.w3.org/2000/svg" viewBox="0 0 256 256"><defs><style>.cls-1{fill:#fff;}</style></defs><title>fullScreenIcon</title><rect width="256" height="256"/><path class="cls-1" d="M229.3,25.94l0,0a11,11,0,0,1,3.11,7.63v33a11,11,0,0,1-22,0V61.84L173.27,99a12,12,0,0,1-17-17l37.19-37.18h-4.8a11,11,0,0,1,0-22h33A11,11,0,0,1,229.3,25.94Z"/><path class="cls-1" d="M26.35,230.06l-.05,0a11,11,0,0,1-3.11-7.64v-33a11,11,0,0,1,22,0v4.79L82.38,157a12,12,0,0,1,17,17L62.16,211.14H67a11,11,0,0,1,0,22H34A11,11,0,0,1,26.35,230.06Z"/></svg>